<svg xmlns="http://www.w3.org/2000/svg" xmlns:xlink="http://www.w3.org/1999/xlink" version="1.0" x="0" y="0" width="2400" height="495.0627135016594" viewBox="52.29199844360352 100.71964889526367 235.41600311279296 48.56070220947266" preserveAspectRatio="xMidYMid meet" color-interpolation-filters="sRGB"><g><defs><linearGradient id="92" x1="0%" y1="0%" x2="100%" y2="0%"><stop offset="0%" stop-color="#fa71cd"></stop> <stop offset="100%" stop-color="#9b59b6"></stop></linearGradient><linearGradient id="93" x1="0%" y1="0%" x2="100%" y2="0%"><stop offset="0%" stop-color="#f9d423"></stop> <stop offset="100%" stop-color="#f83600"></stop></linearGradient><linearGradient id="94" x1="0%" y1="0%" x2="100%" y2="0%"><stop offset="0%" stop-color="#0064d2"></stop> <stop offset="100%" stop-color="#1cb0f6"></stop></linearGradient><linearGradient id="95" x1="0%" y1="0%" x2="100%" y2="0%"><stop offset="0%" stop-color="#f00978"></stop> <stop offset="100%" stop-color="#3f51b1"></stop></linearGradient><linearGradient id="96" x1="0%" y1="0%" x2="100%" y2="0%"><stop offset="0%" stop-color="#7873f5"></stop> <stop offset="100%" stop-color="#ec77ab"></stop></linearGradient><linearGradient id="97" x1="0%" y1="0%" x2="100%" y2="0%"><stop offset="0%" stop-color="#f9d423"></stop> <stop offset="100%" stop-color="#e14fad"></stop></linearGradient><linearGradient id="98" x1="0%" y1="0%" x2="100%" y2="0%"><stop offset="0%" stop-color="#009efd"></stop> <stop offset="100%" stop-color="#2af598"></stop></linearGradient><linearGradient id="99" x1="0%" y1="0%" x2="100%" y2="0%"><stop offset="0%" stop-color="#ffcc00"></stop> <stop offset="100%" stop-color="#00b140"></stop></linearGradient><linearGradient id="100" x1="0%" y1="0%" x2="100%" y2="0%"><stop offset="0%" stop-color="#d51007"></stop> <stop offset="100%" stop-color="#ff8177"></stop></linearGradient><linearGradient id="102" x1="0%" y1="0%" x2="100%" y2="0%"><stop offset="0%" stop-color="#a2b6df"></stop> <stop offset="100%" stop-color="#0c3483"></stop></linearGradient><linearGradient id="103" x1="0%" y1="0%" x2="100%" y2="0%"><stop offset="0%" stop-color="#7ac5d8"></stop> <stop offset="100%" stop-color="#eea2a2"></stop></linearGradient><linearGradient id="104" x1="0%" y1="0%" x2="100%" y2="0%"><stop offset="0%" stop-color="#00ecbc"></stop> <stop offset="100%" stop-color="#007adf"></stop></linearGradient><linearGradient id="105" x1="0%" y1="0%" x2="100%" y2="0%"><stop offset="0%" stop-color="#b88746"></stop> <stop offset="100%" stop-color="#fdf5a6"></stop></linearGradient></defs><g fill="#000000" class="icon-text-wrapper icon-svg-group iconsvg" transform="translate(54.599998474121094,103.02764892578125)"><g class="iconsvg-imagesvg" transform="translate(0,0)"><g><rect fill="#000000" fill-opacity="0" stroke-width="2" x="0" y="0" width="52.8" height="43.94470291549799" class="image-rect"></rect> <svg x="0" y="0" width="52.8" height="43.94470291549799" filtersec="colorsb8991605884" class="image-svg-svg primary" style="overflow: visible;"><svg xmlns="http://www.w3.org/2000/svg" viewBox="0 0 30.229999542236328 25.15999984741211"><g><g><g fill-rule="evenodd"><path fill="#D29C40" d="M18.87 0L11.4.05l10.94 12.33 7.89-.01L18.87 0z"></path><path d="M18.71.05h.12l-.06.07-.06-.07zm-3.89 4.52l-6.93 7.81H0L11.05.33l3.76 4.24z" fill="#D29C40"></path><path fill="#CC23A5" d="M11.35 25.16l7.48-.06L7.89 12.78H0l11.35 12.38z"></path><path d="M11.52 25.1h-.12l.06-.07.06.07zm3.89-4.52l6.93-7.81h7.89l-11.05 12-3.76-4.24z" fill="#CC23A5"></path></g></g></g></svg></svg> </g></g> <g transform="translate(53.99999809265137,6.9447021484375)"><g fill-rule="" class="tp-name iconsvg-namesvg"><g transform="scale(1)"><g><path d="M19.24-9.52Q19.24-8.53 19.1-7.74L19.1-7.74 5.76-7.74Q5.93-5.76 7.15-4.64 8.37-3.52 10.14-3.52L10.14-3.52Q12.71-3.52 13.8-5.73L13.8-5.73 18.77-5.73Q17.98-3.1 15.74-1.4 13.5 0.3 10.24 0.3L10.24 0.3Q7.61 0.3 5.52-0.87 3.43-2.04 2.26-4.18 1.09-6.32 1.09-9.12L1.09-9.12Q1.09-11.96 2.24-14.1 3.39-16.24 5.47-17.39 7.54-18.54 10.24-18.54L10.24-18.54Q12.85-18.54 14.9-17.42 16.96-16.3 18.1-14.25 19.24-12.19 19.24-9.52L19.24-9.52ZM5.8-10.84L14.46-10.84Q14.43-12.61 13.17-13.69 11.92-14.76 10.11-14.76L10.11-14.76Q8.4-14.76 7.23-13.72 6.06-12.68 5.8-10.84L5.8-10.84ZM43.9-16.07L38.6-16.07Q37.81-17.52 36.43-18.28 35.04-19.04 33.2-19.04L33.2-19.04Q31.16-19.04 29.58-18.12 28-17.19 27.11-15.48 26.22-13.77 26.22-11.53L26.22-11.53Q26.22-9.22 27.12-7.51 28.03-5.8 29.64-4.87 31.26-3.95 33.4-3.95L33.4-3.95Q36.03-3.95 37.71-5.35 39.39-6.75 39.92-9.26L39.92-9.26 32.01-9.26 32.01-12.78 44.46-12.78 44.46-8.76Q44-6.36 42.49-4.31 40.97-2.27 38.59-1.04 36.2 0.2 33.23 0.2L33.23 0.2Q29.91 0.2 27.22-1.3 24.54-2.8 23.01-5.47 21.47-8.14 21.47-11.53L21.47-11.53Q21.47-14.92 23.01-17.6 24.54-20.29 27.22-21.79 29.91-23.29 33.2-23.29L33.2-23.29Q37.09-23.29 39.95-21.39 42.82-19.5 43.9-16.07L43.9-16.07ZM55.99 0.3Q53.36 0.3 51.25-0.87 49.14-2.04 47.94-4.18 46.74-6.32 46.74-9.12L46.74-9.12Q46.74-11.92 47.97-14.06 49.21-16.2 51.35-17.37 53.49-18.54 56.12-18.54L56.12-18.54Q58.76-18.54 60.9-17.37 63.04-16.2 64.28-14.06 65.51-11.92 65.51-9.12L65.51-9.12Q65.51-6.32 64.24-4.18 62.98-2.04 60.82-0.87 58.66 0.3 55.99 0.3L55.99 0.3ZM55.99-3.72Q57.24-3.72 58.35-4.33 59.45-4.94 60.11-6.16 60.77-7.38 60.77-9.12L60.77-9.12Q60.77-11.73 59.4-13.13 58.03-14.53 56.06-14.53L56.06-14.53Q54.08-14.53 52.75-13.13 51.41-11.73 51.41-9.12L51.41-9.12Q51.41-6.52 52.72-5.12 54.02-3.72 55.99-3.72L55.99-3.72ZM68.9-24.37L73.52-24.37 73.52 0 68.9 0 68.9-24.37ZM76.87-9.19Q76.87-11.96 77.98-14.1 79.08-16.24 80.99-17.39 82.9-18.54 85.24-18.54L85.24-18.54Q87.02-18.54 88.63-17.77 90.25-17 91.2-15.71L91.2-15.71 91.2-24.37 95.88-24.37 95.88 0 91.2 0 91.2-2.7Q90.35-1.35 88.8-0.53 87.25 0.3 85.21 0.3L85.21 0.3Q82.9 0.3 80.99-0.89 79.08-2.08 77.98-4.23 76.87-6.39 76.87-9.19L76.87-9.19ZM91.24-9.12Q91.24-10.8 90.58-12.01 89.92-13.21 88.8-13.85 87.68-14.49 86.39-14.49L86.39-14.49Q85.11-14.49 84.02-13.87 82.94-13.24 82.26-12.04 81.58-10.84 81.58-9.19L81.58-9.19Q81.58-7.54 82.26-6.31 82.94-5.07 84.04-4.41 85.14-3.75 86.39-3.75L86.39-3.75Q87.68-3.75 88.8-4.4 89.92-5.04 90.58-6.24 91.24-7.44 91.24-9.12L91.24-9.12ZM107.37 0.3Q105.13 0.3 103.36-0.51 101.58-1.32 100.54-2.7 99.5-4.08 99.4-5.76L99.4-5.76 104.05-5.76Q104.18-4.71 105.09-4.02 105.99-3.33 107.34-3.33L107.34-3.33Q108.66-3.33 109.4-3.85 110.14-4.38 110.14-5.2L110.14-5.2Q110.14-6.09 109.24-6.54 108.33-6.98 106.35-7.51L106.35-7.51Q104.31-8 103.01-8.53 101.71-9.06 100.77-10.14 99.83-11.23 99.83-13.08L99.83-13.08Q99.83-14.59 100.7-15.84 101.58-17.09 103.21-17.82 104.84-18.54 107.04-18.54L107.04-18.54Q110.31-18.54 112.25-16.91 114.19-15.28 114.39-12.52L114.39-12.52 109.98-12.52Q109.88-13.6 109.07-14.25 108.26-14.89 106.91-14.89L106.91-14.89Q105.66-14.89 104.99-14.43 104.31-13.97 104.31-13.14L104.31-13.14Q104.31-12.22 105.23-11.74 106.16-11.26 108.1-10.77L108.1-10.77Q110.08-10.28 111.36-9.75 112.64-9.22 113.58-8.12 114.52-7.02 114.55-5.2L114.55-5.2Q114.55-3.62 113.68-2.37 112.81-1.12 111.18-0.41 109.55 0.3 107.37 0.3L107.37 0.3ZM117.16-9.12Q117.16-11.96 118.31-14.08 119.46-16.2 121.5-17.37 123.55-18.54 126.18-18.54L126.18-18.54Q129.57-18.54 131.8-16.85 134.02-15.15 134.78-12.09L134.78-12.09 129.8-12.09Q129.41-13.27 128.47-13.95 127.53-14.62 126.15-14.62L126.15-14.62Q124.17-14.62 123.02-13.19 121.87-11.76 121.87-9.12L121.87-9.12Q121.87-6.52 123.02-5.09 124.17-3.66 126.15-3.66L126.15-3.66Q128.95-3.66 129.8-6.16L129.8-6.16 134.78-6.16Q134.02-3.19 131.78-1.45 129.54 0.3 126.18 0.3L126.18 0.3Q123.55 0.3 121.5-0.87 119.46-2.04 118.31-4.17 117.16-6.29 117.16-9.12L117.16-9.12ZM136.98-9.19Q136.98-11.96 138.09-14.1 139.19-16.24 141.09-17.39 142.98-18.54 145.32-18.54L145.32-18.54Q147.36-18.54 148.89-17.72 150.42-16.9 151.34-15.65L151.34-15.65 151.34-18.25 155.99-18.25 155.99 0 151.34 0 151.34-2.67Q150.46-1.38 148.89-0.54 147.33 0.3 145.28 0.3L145.28 0.3Q142.98 0.3 141.09-0.89 139.19-2.08 138.09-4.23 136.98-6.39 136.98-9.19L136.98-9.19ZM151.34-9.12Q151.34-10.8 150.69-12.01 150.03-13.21 148.91-13.85 147.79-14.49 146.5-14.49L146.5-14.49Q145.22-14.49 144.13-13.87 143.04-13.24 142.37-12.04 141.69-10.84 141.69-9.19L141.69-9.19Q141.69-7.54 142.37-6.31 143.04-5.07 144.15-4.41 145.25-3.75 146.5-3.75L146.5-3.75Q147.79-3.75 148.91-4.4 150.03-5.04 150.69-6.24 151.34-7.44 151.34-9.12L151.34-9.12ZM170.61-18.51Q173.87-18.51 175.88-16.45 177.89-14.39 177.89-10.7L177.89-10.7 177.89 0 173.28 0 173.28-10.08Q173.28-12.25 172.19-13.42 171.11-14.59 169.23-14.59L169.23-14.59Q167.32-14.59 166.22-13.42 165.11-12.25 165.11-10.08L165.11-10.08 165.11 0 160.5 0 160.5-18.25 165.11-18.25 165.11-15.97Q166.03-17.16 167.47-17.84 168.9-18.51 170.61-18.51L170.61-18.51Z" transform="translate(-1.090000033378601, 24.3700008392334)"></path></g> </g></g> </g></g><defs v-gra="od"></defs></g></svg>