<svg xmlns="http://www.w3.org/2000/svg" xmlns:xlink="http://www.w3.org/1999/xlink" version="1.0" x="0" y="0" width="2400" height="520.4554906826454" viewBox="58.60580093383789 100.84344894409179 222.78839813232423 48.313102111816406" preserveAspectRatio="xMidYMid meet" color-interpolation-filters="sRGB"><g><defs><linearGradient id="92" x1="0%" y1="0%" x2="100%" y2="0%"><stop offset="0%" stop-color="#fa71cd"></stop> <stop offset="100%" stop-color="#9b59b6"></stop></linearGradient><linearGradient id="93" x1="0%" y1="0%" x2="100%" y2="0%"><stop offset="0%" stop-color="#f9d423"></stop> <stop offset="100%" stop-color="#f83600"></stop></linearGradient><linearGradient id="94" x1="0%" y1="0%" x2="100%" y2="0%"><stop offset="0%" stop-color="#0064d2"></stop> <stop offset="100%" stop-color="#1cb0f6"></stop></linearGradient><linearGradient id="95" x1="0%" y1="0%" x2="100%" y2="0%"><stop offset="0%" stop-color="#f00978"></stop> <stop offset="100%" stop-color="#3f51b1"></stop></linearGradient><linearGradient id="96" x1="0%" y1="0%" x2="100%" y2="0%"><stop offset="0%" stop-color="#7873f5"></stop> <stop offset="100%" stop-color="#ec77ab"></stop></linearGradient><linearGradient id="97" x1="0%" y1="0%" x2="100%" y2="0%"><stop offset="0%" stop-color="#f9d423"></stop> <stop offset="100%" stop-color="#e14fad"></stop></linearGradient><linearGradient id="98" x1="0%" y1="0%" x2="100%" y2="0%"><stop offset="0%" stop-color="#009efd"></stop> <stop offset="100%" stop-color="#2af598"></stop></linearGradient><linearGradient id="99" x1="0%" y1="0%" x2="100%" y2="0%"><stop offset="0%" stop-color="#ffcc00"></stop> <stop offset="100%" stop-color="#00b140"></stop></linearGradient><linearGradient id="100" x1="0%" y1="0%" x2="100%" y2="0%"><stop offset="0%" stop-color="#d51007"></stop> <stop offset="100%" stop-color="#ff8177"></stop></linearGradient><linearGradient id="102" x1="0%" y1="0%" x2="100%" y2="0%"><stop offset="0%" stop-color="#a2b6df"></stop> <stop offset="100%" stop-color="#0c3483"></stop></linearGradient><linearGradient id="103" x1="0%" y1="0%" x2="100%" y2="0%"><stop offset="0%" stop-color="#7ac5d8"></stop> <stop offset="100%" stop-color="#eea2a2"></stop></linearGradient><linearGradient id="104" x1="0%" y1="0%" x2="100%" y2="0%"><stop offset="0%" stop-color="#00ecbc"></stop> <stop offset="100%" stop-color="#007adf"></stop></linearGradient><linearGradient id="105" x1="0%" y1="0%" x2="100%" y2="0%"><stop offset="0%" stop-color="#b88746"></stop> <stop offset="100%" stop-color="#fdf5a6"></stop></linearGradient></defs><g fill="#000000" class="icon-text-wrapper icon-svg-group iconsvg" transform="translate(60.790000915527344,103.02764892578125)"><g class="iconsvg-imagesvg" transform="translate(0,0)"><g><rect fill="#000000" fill-opacity="0" stroke-width="2" x="0" y="0" width="52.8" height="43.94470291549799" class="image-rect"></rect> <svg x="0" y="0" width="52.8" height="43.94470291549799" filtersec="colorsb4771213090" class="image-svg-svg primary" style="overflow: visible;"><svg xmlns="http://www.w3.org/2000/svg" viewBox="0 0 30.229999542236328 25.15999984741211"><g><g><g fill-rule="evenodd"><path fill="#D29C40" d="M18.87 0L11.4.05l10.94 12.33 7.89-.01L18.87 0z"></path><path d="M18.71.05h.12l-.06.07-.06-.07zm-3.89 4.52l-6.93 7.81H0L11.05.33l3.76 4.24z" fill="#D29C40"></path><path fill="#CC23A5" d="M11.35 25.16l7.48-.06L7.89 12.78H0l11.35 12.38z"></path><path d="M11.52 25.1h-.12l.06-.07.06.07zm3.89-4.52l6.93-7.81h7.89l-11.05 12-3.76-4.24z" fill="#CC23A5"></path></g></g></g></svg></svg> </g></g> <g transform="translate(66.38000297546387,6.9447021484375)"><g fill-rule="" class="tp-name iconsvg-namesvg"><g transform="scale(1)"><g><path d="M17.82-6.26L13.67-6.26 5.04-6.26Q5.37-5.5 5.99-4.91L5.99-4.91Q6.69-4.22 7.54-3.87 8.4-3.52 9.35-3.52L9.35-3.52Q10.7-3.52 11.76-4.15L11.76-4.15 15.88-2.5Q14.69-1.12 13.01-0.35 11.33 0.43 9.35 0.43L9.35 0.43Q7.54 0.43 5.96-0.25 4.38-0.92 3.19-2.11 2.01-3.29 1.33-4.87 0.66-6.46 0.66-8.23L0.66-8.23Q0.66-10.05 1.33-11.63 2.01-13.21 3.19-14.39 4.38-15.58 5.96-16.25 7.54-16.93 9.35-16.93L9.35-16.93Q11.17-16.93 12.75-16.25 14.33-15.58 15.51-14.39 16.7-13.21 17.37-11.63 18.05-10.05 18.05-8.23L18.05-8.23Q18.05-7.18 17.82-6.26L17.82-6.26ZM9.35-12.98L9.35-12.98Q7.44-12.98 5.99-11.59L5.99-11.59Q5.37-10.97 5.04-10.21L5.04-10.21 13.67-10.21Q13.34-10.97 12.71-11.59L12.71-11.59Q11.33-12.98 9.35-12.98ZM43.34-13.54L43.34-13.54Q43.41-13.04 43.46-12.55 43.51-12.05 43.51-11.56L43.51-11.56Q43.51-9.09 42.57-6.9 41.63-4.71 40-3.08 38.37-1.45 36.18-0.51 33.99 0.43 31.52 0.43L31.52 0.43Q29.05 0.43 26.86-0.51 24.67-1.45 23.04-3.08 21.41-4.71 20.47-6.9 19.53-9.09 19.53-11.56L19.53-11.56Q19.53-14.03 20.47-16.22 21.41-18.41 23.04-20.04 24.67-21.67 26.86-22.61 29.05-23.55 31.52-23.55L31.52-23.55Q34.02-23.55 36.2-22.61 38.37-21.67 39.99-20.03L39.99-20.03 37.22-17.23Q36.07-18.38 34.6-18.99 33.13-19.6 31.52-19.6L31.52-19.6Q29.91-19.6 28.46-18.99 27.01-18.38 25.86-17.23L25.86-17.23Q24.7-16.07 24.09-14.62 23.48-13.17 23.48-11.56L23.48-11.56Q23.48-9.95 24.09-8.48 24.7-7.02 25.86-5.86L25.86-5.86Q27.01-4.71 28.46-4.12 29.91-3.52 31.52-3.52L31.52-3.52Q33.13-3.52 34.6-4.12 36.07-4.71 37.22-5.86L37.22-5.86Q38.77-7.48 39.33-9.58L39.33-9.58 28.66-9.58 29.64-13.54 43.34-13.54ZM53.69-12.98L53.69-12.98Q51.71-12.98 50.33-11.59L50.33-11.59Q48.94-10.21 48.94-8.23L48.94-8.23Q48.94-6.29 50.33-4.91L50.33-4.91Q50.99-4.22 51.86-3.87 52.73-3.52 53.69-3.52L53.69-3.52Q54.64-3.52 55.5-3.87 56.35-4.22 57.05-4.91L57.05-4.91Q58.43-6.29 58.43-8.23L58.43-8.23Q58.43-10.21 57.05-11.59L57.05-11.59Q55.6-12.98 53.69-12.98ZM53.69-16.93L53.69-16.93Q55.5-16.93 57.08-16.25 58.66-15.58 59.85-14.39 61.03-13.21 61.71-11.63 62.38-10.05 62.38-8.23L62.38-8.23Q62.38-6.46 61.71-4.87 61.03-3.29 59.85-2.11 58.66-0.92 57.08-0.25 55.5 0.43 53.69 0.43L53.69 0.43Q51.88 0.43 50.29-0.25 48.71-0.92 47.53-2.11 46.34-3.29 45.67-4.87 44.99-6.46 44.99-8.23L44.99-8.23Q44.99-10.05 45.67-11.63 46.34-13.21 47.53-14.39 48.71-15.58 50.29-16.25 51.88-16.93 53.69-16.93ZM68.15 0L68.15 0 64.19 0 64.19-23.06 68.15-23.06 68.15 0ZM83.36-23.09L87.32-23.09 87.32 0 83.36 0 83.36-8.23Q83.36-10.24 81.98-11.59L81.98-11.59Q80.6-12.98 78.65-12.98L78.65-12.98Q76.68-12.98 75.29-11.59L75.29-11.59Q73.91-10.21 73.91-8.23L73.91-8.23Q73.91-6.29 75.29-4.91L75.29-4.91Q75.95-4.22 76.83-3.87 77.7-3.52 78.65-3.52L78.65-3.52Q79.61-3.52 80.4-3.85L80.4-3.85 81.82-0.33Q80.3 0.43 78.32 0.43L78.32 0.43Q76.51 0.43 74.98-0.25 73.45-0.92 72.33-2.11 71.21-3.29 70.58-4.87 69.96-6.46 69.96-8.23L69.96-8.23Q69.96-10.05 70.58-11.63 71.21-13.21 72.33-14.39 73.45-15.58 74.98-16.25 76.51-16.93 78.32-16.93L78.32-16.93Q79.9-16.93 81.16-16.44 82.41-15.94 83.36-15.18L83.36-15.18 83.36-23.09ZM96.04-10.21L96.04-10.21Q96.44-10.11 97.36-9.75 98.28-9.39 99.26-8.74 100.23-8.1 100.95-7.15 101.68-6.19 101.68-4.87L101.68-4.87Q101.68-3.72 101.3-2.77 100.92-1.81 100.19-1.09 99.47-0.36 98.42 0.03 97.36 0.43 96.04 0.43L96.04 0.43Q94.03 0.43 92.31-0.3 90.58-1.02 89.52-2.08L89.52-2.08 92.26-4.81Q93.11-3.79 94.08-3.49 95.06-3.19 95.71-3.19L95.71-3.19Q96.74-3.19 97.23-3.59 97.72-3.99 97.72-4.55L97.72-4.55Q97.72-4.94 97.39-5.24 97.06-5.53 96.62-5.73 96.18-5.93 95.71-6.04 95.25-6.16 94.96-6.26L94.96-6.26Q94.56-6.39 93.62-6.72 92.68-7.05 91.71-7.67 90.74-8.3 90.02-9.26 89.29-10.21 89.29-11.56L89.29-11.56Q89.29-12.94 89.77-13.95 90.25-14.95 91.04-15.61 91.83-16.27 92.85-16.58 93.87-16.9 94.96-16.9L94.96-16.9Q96.64-16.9 97.81-16.5 98.98-16.11 99.73-15.65L99.73-15.65Q100.59-15.09 101.18-14.39L101.18-14.39 98.42-11.63Q97.76-12.48 96.97-12.88 96.18-13.27 95.29-13.27L95.29-13.27Q94.59-13.27 93.92-12.94 93.24-12.61 93.24-11.89L93.24-11.89Q93.24-11.49 93.54-11.22 93.84-10.94 94.27-10.75 94.69-10.57 95.17-10.44 95.65-10.31 96.04-10.21ZM114.42-4.91L117.22-2.11Q116.04-0.92 114.46-0.25 112.87 0.43 111.06 0.43L111.06 0.43Q109.25 0.43 107.67-0.25 106.09-0.92 104.9-2.11 103.72-3.29 103.04-4.87 102.37-6.46 102.37-8.23L102.37-8.23Q102.37-10.05 103.04-11.63 103.72-13.21 104.9-14.39 106.09-15.58 107.67-16.25 109.25-16.93 111.06-16.93L111.06-16.93Q112.87-16.93 114.46-16.25 116.04-15.58 117.22-14.39L117.22-14.39 114.42-11.59Q113.04-12.98 111.06-12.98L111.06-12.98Q109.15-12.98 107.7-11.59L107.7-11.59Q106.32-10.21 106.32-8.23L106.32-8.23Q106.32-6.29 107.7-4.91L107.7-4.91Q108.4-4.22 109.25-3.87 110.11-3.52 111.06-3.52L111.06-3.52Q113.07-3.52 114.42-4.91L114.42-4.91ZM130.99-16.5L134.94-16.5 134.94 0 130.99 0 130.99-8.23Q130.99-10.21 129.61-11.59L129.61-11.59Q128.22-12.98 126.25-12.98L126.25-12.98Q125.29-12.98 124.42-12.61 123.55-12.25 122.89-11.59L122.89-11.59Q121.5-10.21 121.5-8.23L121.5-8.23Q121.5-6.29 122.89-4.91L122.89-4.91Q123.55-4.22 124.42-3.87 125.29-3.52 126.25-3.52L126.25-3.52Q127.24-3.52 128.03-3.85L128.03-3.85 129.44-0.33Q127.93 0.43 125.92 0.43L125.92 0.43Q124.11 0.43 122.57-0.25 121.04-0.92 119.92-2.11 118.8-3.29 118.18-4.87 117.55-6.46 117.55-8.23L117.55-8.23Q117.55-10.05 118.18-11.63 118.8-13.21 119.92-14.39 121.04-15.58 122.57-16.25 124.11-16.93 125.92-16.93L125.92-16.93Q127.53-16.93 128.78-16.44 130.03-15.94 130.99-15.18L130.99-15.18 130.99-16.5ZM145.55-16.93L145.55-16.93Q147.16-16.93 148.48-16.32 149.8-15.71 150.74-14.64 151.67-13.57 152.18-12.15 152.7-10.74 152.7-9.12L152.7-9.12 152.7 0 148.74 0 148.74-9.12Q148.74-10.77 147.59-11.86L147.59-11.86Q146.47-12.98 144.89-12.98L144.89-12.98Q143.28-12.98 142.16-11.86L142.16-11.86Q141.04-10.74 141.04-9.12L141.04-9.12 141.04 0 137.08 0 137.08-16.47 141.04-16.47 141.04-15.22Q141.92-15.97 143.04-16.45 144.16-16.93 145.55-16.93Z" transform="translate(-0.6600000262260437, 23.549999237060547)"></path></g> </g></g> </g></g><defs v-gra="od"></defs></g></svg>